# xmcd
#
# Track frame offsets:
#	150
#	18926
#	37032
#	56448
#	76934
#	94308
#	122700
#	140703
#	164085
#	185822
#	208285
#	233563
#	250084
#	265964
#	284820
#	305241
#	325124
#
# Disc length: 4581 seconds
#
# Revision: 1
# Processed by: cddbd v1.5.2PL0 Copyright (c) Steve Scherf et al.
# Submitted via: audiograbber 1.83.01
#
DISCID=0711e311
DTITLE=Various Artist - Retail Promo Juli 2008
DYEAR=2008
DGENRE=
TTITLE0=Krisiun - SLAYING STEEL
TTITLE1=Krisiun - TWISTING SIGHTS
TTITLE2=Krisiun - COMBUSTION INFERNO
TTITLE3=Fear my Thoughts - The Hunted
TTITLE4=Fear my Thoughts - Bound And Weakened
TTITLE5=Fear my Thoughts - Through The Eyes Of God
TTITLE6=Fear my Thoughts - Pitch Black
TTITLE7=Kypck - Stalingrad
TTITLE8=Kypck - Rozhdestvo v Murmanske (Christmas in Murmansk)
TTITLE9=Kypck - 1917
TTITLE10=Kypck - Odin Den iz Zhizni Yegora Kuznetsova (One Day in the Life of Y
TTITLE10=egor Kuznetsov)
TTITLE11=Architects - BURIED AT SEA
TTITLE12=Architects - YOU'LL FIND SAFETY
TTITLE13=Architects - ALWAYS
TTITLE14=God Forbid - force fed - live
TTITLE15=God Forbid - chains of humanity - live
TTITLE16=God Forbid - anti hero - live
EXTD=
EXTT0=
EXTT1=
EXTT2=
EXTT3=
EXTT4=
EXTT5=
EXTT6=
EXTT7=
EXTT8=
EXTT9=
EXTT10=
EXTT11=
EXTT12=
EXTT13=
EXTT14=
EXTT15=
EXTT16=
PLAYORDER=
